<?xml version="1.0" encoding="UTF-8"?>
<svg version="1.1" xmlns="http://www.w3.org/2000/svg" width="1440" height="1080">
<path d="M0 0 C4.50235595 -0.02472359 9.00467236 -0.04287119 13.50708008 -0.05493164 C15.0386626 -0.0599596 16.57024033 -0.06678284 18.10180664 -0.07543945 C20.30356022 -0.08757229 22.50525033 -0.09324367 24.70703125 -0.09765625 C25.39150833 -0.10281754 26.07598541 -0.10797882 26.78120422 -0.11329651 C29.80906242 -0.1136536 32.10150142 0.03383381 35 1 C35.9201681 3.80635984 36.65092162 6.50601024 37.3125 9.375 C38.99081274 16.21909586 40.86426245 22.92986376 43.0625 29.625 C44.95078044 35.43723373 46.61123268 41.22180487 47.9375 47.1875 C50.17932637 57.25718621 53.17619804 67.09559962 56.11083984 76.98095703 C57.50277133 81.70710331 58.84459106 86.44723832 60.1875 91.1875 C61.76615656 96.75241875 63.38325723 102.29585169 65.125 107.8125 C66.71635101 112.91131853 68.03243177 118.04703433 69.29614258 123.23583984 C71.65297207 132.80356469 74.40032228 142.26674843 77.08105469 151.74755859 C78.54049809 156.91299564 79.98966924 162.08129784 81.4375 167.25 C81.72343018 168.2702124 82.00936035 169.2904248 82.30395508 170.34155273 C84.55628334 178.38879717 86.78112752 186.44347479 89 194.5 C96.33551187 221.11841641 96.33551187 221.11841641 104.0625 247.625 C107.14689507 257.93016975 109.96306223 268.27987832 112.6328125 278.69921875 C113.89077745 283.60599176 115.20567726 288.49469484 116.5625 293.375 C116.76149902 294.09204102 116.96049805 294.80908203 117.16552734 295.54785156 C118.21115705 299.28285108 119.29581609 303.00327424 120.421875 306.71484375 C120.65447021 307.48586426 120.88706543 308.25688477 121.12670898 309.05126953 C121.57028522 310.51385518 122.01991858 311.9746234 122.47680664 313.43310547 C123.63131551 317.23427585 124 319.936962 124 324 C112.78 324 101.56 324 90 324 C89.505 321.73125 89.01 319.4625 88.5 317.125 C86.44710197 308.11092785 83.69571974 299.33908198 80.92822266 290.5234375 C78.69125853 283.36013715 76.73073344 276.21832318 74.9921875 268.91796875 C73.83765166 264.20585155 72.41400464 259.57705321 71 254.9375 C68.90173226 248.0513256 66.93708238 241.15246891 65.11328125 234.1875 C61.32479718 219.81469447 57.16007574 205.53690079 53.0625 191.25 C49.23776236 177.91037894 45.5406954 164.53707602 41.86669922 151.15527344 C37.63048498 135.733067 33.28940914 120.34143615 28.8359375 104.98046875 C27.35653976 99.85904222 25.92094741 94.74892343 24.6875 89.5625 C23.22214593 83.54810719 21.39039712 77.66153771 19.5625 71.75 C17.1345873 63.89262034 14.95725695 56.05486551 13.03515625 48.05859375 C10.5249342 37.92322108 7.35866824 27.88408083 4 18 C-0.95346572 33.00275062 -0.95346572 33.00275062 -5.0625 48.25 C-6.40637546 53.89542554 -8.0480959 59.32707601 -9.9375 64.8125 C-12.02743408 70.88633022 -13.85597453 76.96183312 -15.4375 83.1875 C-17.48306883 91.22870159 -19.82311088 99.15193427 -22.26660156 107.08056641 C-24.46636568 114.22443743 -26.59952579 121.38515962 -28.6875 128.5625 C-28.96062012 129.50053467 -29.23374023 130.43856934 -29.51513672 131.4050293 C-30.66748481 135.37357148 -31.81445602 139.34325544 -32.93798828 143.32006836 C-35.31919468 151.73903958 -37.87440846 160.09190957 -40.5 168.4375 C-42.01123535 173.28819801 -43.50777226 178.14342465 -45 183 C-45.26973633 183.87624023 -45.53947266 184.75248047 -45.81738281 185.65527344 C-46.43894072 187.70281002 -47.03854384 189.75468682 -47.625 191.8125 C-48.07746094 193.36904297 -48.07746094 193.36904297 -48.5390625 194.95703125 C-49.65865987 202.3482715 -47.20869368 209.65458495 -45.3125 216.75 C-45.04775879 217.75426025 -44.78301758 218.75852051 -44.51025391 219.79321289 C-42.52955757 227.22404148 -40.36111295 234.5872817 -38.10839844 241.93945312 C-36.61304222 246.85080658 -35.27018636 251.75994274 -34.0625 256.75 C-32.1893449 264.47579325 -29.96745137 272.07948779 -27.71606445 279.70263672 C-25.3859091 287.61380441 -23.17681967 295.55220548 -21.04150391 303.51806641 C-19.65482923 308.67466978 -18.16983907 313.78380621 -16.55957031 318.87548828 C-16 321 -16 321 -16 324 C-27.22 324 -38.44 324 -50 324 C-53.1030944 314.40861731 -56.12390097 304.92100735 -58.46435547 295.11743164 C-59.74601305 289.82880499 -61.27808372 284.6388117 -62.875 279.4375 C-65.12998068 272.08579185 -67.15967811 264.70046844 -69.0625 257.25 C-70.75396797 250.62782613 -72.52493399 244.06726571 -74.625 237.5625 C-76.43420056 231.95701359 -77.96172738 226.3246589 -79.35131836 220.6003418 C-83.4028286 204.06664842 -88.34231479 187.76369144 -93.2817688 171.47817993 C-95.74516065 163.34598033 -98.01748322 155.23642404 -99.9765625 146.96875 C-101.26284929 141.76921438 -102.9096291 136.67520501 -104.5 131.5625 C-106.79355264 124.18131043 -108.83940634 116.83038067 -110.51171875 109.28588867 C-111.96353845 102.86112513 -113.85963661 96.59520188 -115.78930664 90.30004883 C-117.29277989 85.38705714 -118.70569592 80.47228483 -120 75.5 C-121.52687533 69.64061593 -123.23294577 63.85369074 -125 58.0625 C-126.84324624 52.01118494 -128.57585441 45.96145698 -130.0625 39.8125 C-132.08613178 31.45327841 -134.51411241 23.23195563 -137 15 C-138.76913916 17.65370875 -140.00034304 20.07824976 -141.28515625 22.98046875 C-141.72899658 23.97216064 -142.17283691 24.96385254 -142.63012695 25.9855957 C-143.10281006 27.04222412 -143.57549316 28.09885254 -144.0625 29.1875 C-148.55864363 39.12614879 -153.50063213 48.59118052 -159 58 C-159.96611064 59.76660231 -160.92507518 61.53714192 -161.875 63.3125 C-164.98530232 69.04605181 -168.26673889 74.67716639 -171.54370117 80.31640625 C-175.11713337 86.46734686 -178.6610522 92.63450782 -182.1875 98.8125 C-182.6918457 99.69574951 -183.19619141 100.57899902 -183.71582031 101.48901367 C-185.92138526 105.35308547 -188.12477353 109.21837913 -190.32421875 113.0859375 C-190.67524658 113.70235107 -191.02627441 114.31876465 -191.38793945 114.95385742 C-192.28822987 116.53509962 -193.18715657 118.11711807 -194.0859375 119.69921875 C-195.6252003 122.35366174 -197.19576237 124.98113908 -198.78515625 127.60546875 C-202.99532035 134.6020414 -206.91874233 141.75746733 -210.87695312 148.8984375 C-213.77667188 154.10713274 -216.73457438 159.23490869 -219.93383789 164.26464844 C-221.53050162 166.86347733 -222.85843711 169.56895887 -224.1875 172.3125 C-226.64807219 177.34698321 -229.21413282 182.31263693 -231.85522461 187.25488281 C-236.85379812 196.57854262 -236.85379812 196.57854262 -240.94921875 206.3203125 C-241.83481635 208.578751 -242.79698271 210.73812277 -243.83203125 212.9296875 C-254.18192525 234.9728893 -260.48875046 259.75672216 -253.19921875 283.72265625 C-250.64022513 290.71612741 -247.22414059 296.16924063 -242.13671875 301.58984375 C-241 303 -241 303 -241 305 C-239.700625 305.37125 -239.700625 305.37125 -238.375 305.75 C-235 307 -235 307 -232.25 308.9375 C-222.83234895 314.91408624 -211.42578647 315.61166428 -200.65234375 313.2734375 C-195.10801126 311.54915711 -190.27987815 309.28464039 -185.5234375 305.953125 C-184 305 -184 305 -182 305 C-181.72929687 304.40574219 -181.45859375 303.81148437 -181.1796875 303.19921875 C-180.01800148 301.03355906 -178.81162126 299.58214148 -177.125 297.8125 C-170.41548743 290.074522 -168.85015017 280.85345128 -167 271 C-163.89585298 270.97096423 -160.79174091 270.9531893 -157.6875 270.9375 C-156.80642578 270.92912109 -155.92535156 270.92074219 -155.01757812 270.91210938 C-154.17001953 270.90888672 -153.32246094 270.90566406 -152.44921875 270.90234375 C-151.27879028 270.89448853 -151.27879028 270.89448853 -150.0847168 270.88647461 C-148 271 -148 271 -145 272 C-148.01698808 279.72074677 -151.49263205 286.72081437 -156.6484375 293.23828125 C-158.16587173 295.13960354 -158.16587173 295.13960354 -159.75 298 C-160.1625 298.66 -160.575 299.32 -161 300 C-161.66 300 -162.32 300 -163 300 C-163.25265625 300.58265625 -163.5053125 301.1653125 -163.765625 301.765625 C-169.43556499 312.02893409 -183.66390183 318.72586615 -194.375 322.5 C-208.9187008 326.46324693 -222.49222992 323.94672919 -235.8125 317.25 C-241.05292704 314.24344843 -244.97279524 310.45462036 -249 306 C-249.495 305.53464844 -249.99 305.06929687 -250.5 304.58984375 C-252.48563667 302.48527572 -253.94636725 300.18947599 -255.5 297.75 C-256.0878125 296.83734375 -256.675625 295.9246875 -257.28125 294.984375 C-268.13139021 276.1445861 -266.46348404 253.31290781 -261.2265625 233 C-256.74268776 218.51996413 -249.94953073 204.43456841 -243 191 C-242.37659037 189.75115338 -241.75565829 188.50106806 -241.13671875 187.25 C-237.24646194 179.3872844 -233.23978542 171.60131302 -229.078125 163.87890625 C-227.58580029 161.10693458 -226.12203645 158.32160113 -224.671875 155.52734375 C-224.27863037 154.77316162 -223.88538574 154.01897949 -223.48022461 153.24194336 C-222.72692855 151.79567163 -221.97745137 150.34740133 -221.23266602 148.89672852 C-219.15080603 144.91431168 -216.84286483 141.32629224 -214.18041992 137.71044922 C-212.29801629 134.98281326 -210.92423275 132.04868612 -209.5 129.0625 C-207.28313316 124.49464768 -204.95530682 120.10960424 -202.1796875 115.85546875 C-200.86099672 113.78136901 -199.67890893 111.65645143 -198.5 109.5 C-196.90166718 106.57890898 -195.23219705 103.74205716 -193.4375 100.9375 C-191.4137675 97.74744191 -189.69463637 94.49447579 -188.046875 91.09765625 C-186.16475549 87.3263944 -184.07239794 83.66916357 -182 80 C-181.34 80 -180.68 80 -180 80 C-179.88398438 79.00226563 -179.88398438 79.00226563 -179.765625 77.984375 C-178.7399098 73.98617902 -176.82447058 70.79472643 -174.75 67.25 C-173.97366262 65.90121183 -173.19762312 64.55225217 -172.421875 63.203125 C-172.02548828 62.51734375 -171.62910156 61.8315625 -171.22070312 61.125 C-167.31960718 54.33397218 -163.62392112 47.4420739 -160 40.5 C-157.49541479 35.70215395 -154.9705657 30.92588616 -152.3125 26.2109375 C-150.65230383 23.23944577 -149.18386897 20.3237229 -148 17.125 C-145.86978157 11.66631528 -143.42472529 6.33439563 -141 1 C-129.45 1 -117.9 1 -106 1 C-97.92183344 27.97286123 -97.92183344 27.97286123 -94.72607422 40.4831543 C-93.45253025 45.42069394 -92.00653215 50.27385734 -90.4375 55.125 C-88.70741026 60.47605328 -87.2857159 65.82387322 -86.0625 71.3125 C-84.50738291 78.27136927 -82.48725093 84.9969751 -80.28149414 91.77490234 C-78.25218401 98.06098515 -76.53272344 104.3922119 -74.89916992 110.79101562 C-73.37685334 116.70240424 -71.66343463 122.53905542 -69.875 128.375 C-68.25726601 133.66110257 -66.72124278 138.90266407 -65.5625 144.3125 C-63.39048717 154.37792531 -60.0672606 164.17897642 -57 174 C-54.3463209 168.25777758 -52.01875535 162.51467458 -50.0625 156.5 C-49.80726563 155.72591797 -49.55203125 154.95183594 -49.2890625 154.15429688 C-47.36413337 148.25979998 -45.60529927 142.32431795 -43.88378906 136.36791992 C-41.77529417 129.12307188 -39.37753661 121.98538857 -36.95996094 114.83886719 C-29.17910551 91.97145195 -29.17910551 91.97145195 -22.12109375 68.875 C-19.18331388 58.63310314 -15.84987091 48.50743346 -12.46484375 38.40625 C-12.24206253 37.74094772 -12.01928131 37.07564545 -11.78974915 36.3901825 C-10.67385601 33.06024072 -9.55372192 29.73181163 -8.42700195 26.40551758 C-5.9299904 19.07278485 -5.9299904 19.07278485 -3.890625 11.60546875 C-2.89307535 7.56714276 -1.51991928 3.86888545 0 0 Z " fill="#FBFBFB" transform="translate(369,332)"/>
<path d="M0 0 C1.49563477 0.23529419 1.49563477 0.23529419 3.02148438 0.4753418 C12.93992093 2.18160749 22.02406296 5.55925666 31 10.0625 C31.68489502 10.40506836 32.36979004 10.74763672 33.07543945 11.10058594 C37.60679817 13.44318235 41.4782752 16.01205103 45.13671875 19.609375 C46.87142548 21.37314333 46.87142548 21.37314333 49.26953125 23.13671875 C60.28228812 32.28864112 65.51772279 46.53373592 67.8125 60.25 C68.19774546 65.52119893 68.19442794 70.76584538 68.15307617 76.04614258 C68.15222775 77.5849862 68.15270923 79.12383103 68.15440369 80.66267395 C68.15525667 84.79824513 68.13774528 88.93354981 68.11668181 93.06905961 C68.09779744 97.40651451 68.09615538 101.743977 68.09260559 106.08146667 C68.0833194 114.27634684 68.05875254 122.47110546 68.02855712 130.66593236 C67.99490578 140.00340294 67.97850024 149.34087964 67.96347082 158.67839587 C67.9321995 177.86901326 67.87723084 197.05946428 67.8125 216.25 C56.9225 216.25 46.0325 216.25 34.8125 216.25 C34.79062622 209.12108154 34.79062622 209.12108154 34.76831055 201.84814453 C34.7178428 186.09816199 34.6513737 170.34827647 34.57678509 154.59839058 C34.5319745 145.05470007 34.49252657 135.51104564 34.46606445 125.96728516 C34.44296426 117.64107615 34.40943414 109.31498279 34.36379844 100.98886573 C34.34002694 96.58738977 34.32119363 92.18602719 34.31488609 87.78448868 C34.30876148 83.62624969 34.28850238 79.4683002 34.25822449 75.31016922 C34.24956061 73.79872157 34.24569688 72.28723588 34.24749184 70.77576447 C34.25411364 62.61358176 33.77239372 54.70618604 32.48078918 46.63790894 C32.3657947 45.90206042 32.25080022 45.16621191 32.13232106 44.40806496 C30.94300902 37.62333309 28.2217636 32.22131499 24.8125 26.25 C24.4825 25.26 24.1525 24.27 23.8125 23.25 C23.1525 23.25 22.4925 23.25 21.8125 23.25 C21.4825 21.93 21.1525 20.61 20.8125 19.25 C20.1525 19.25 19.4925 19.25 18.8125 19.25 C18.8125 18.59 18.8125 17.93 18.8125 17.25 C16.48035852 16.04371992 14.31607861 15.0845262 11.8125 14.25 C11.8125 14.91 11.8125 15.57 11.8125 16.25 C12.4725 16.25 13.1325 16.25 13.8125 16.25 C23.88961939 27.02209314 26.15122117 42.29904113 26.03125 56.515625 C25.09021578 72.58042354 18.79974333 84.82857141 7.14453125 95.75 C-5.13975734 105.8760186 -20.21415969 113.10357184 -34.95703125 118.91796875 C-39.70114137 120.8741254 -44.34949075 123.01959943 -49 125.1875 C-49.8967041 125.59500488 -50.7934082 126.00250977 -51.71728516 126.42236328 C-56.66474842 128.74965739 -60.75532311 131.21716383 -64.77026367 134.94458008 C-66.1875 136.25 -66.1875 136.25 -68.6875 138 C-77.43245621 145.87046059 -83.4536955 158.06333215 -84.390625 169.79296875 C-84.60141343 181.68494914 -81.19939019 190.50827129 -73.2890625 199.37890625 C-63.41929457 209.04687595 -50.72784188 212.58955393 -37.25415039 212.6328125 C-26.9470022 212.43461796 -18.68267533 208.88114978 -11.28125 201.640625 C-1.96999297 191.0091151 1.05204507 179.79855634 3.8125 166.25 C7.53457387 166.25 9.27645589 167.42964568 12.5 169.25 C13.49386719 169.806875 14.48773437 170.36375 15.51171875 170.9375 C16.27097656 171.370625 17.03023437 171.80375 17.8125 172.25 C15.88843434 186.09258347 5.25458806 200.44574643 -5.390625 208.91796875 C-6.28007813 209.57732422 -6.28007813 209.57732422 -7.1875 210.25 C-7.86296875 210.76175781 -8.5384375 211.27351562 -9.234375 211.80078125 C-23.07848578 221.69293842 -39.94315357 224.10485646 -56.52734375 221.9453125 C-66.17289835 220.30707272 -74.70577031 217.18889539 -83.1875 212.25 C-84.46753906 211.51523437 -84.46753906 211.51523437 -85.7734375 210.765625 C-89.63537539 208.34097791 -92.87651089 205.37070238 -96.1875 202.25 C-96.77789063 201.69828125 -97.36828125 201.1465625 -97.9765625 200.578125 C-104.13091425 194.22705881 -107.47591469 186.16201357 -111.1875 178.25 C-111.5175 177.59 -111.8475 176.93 -112.1875 176.25 C-114.20756848 158.19181203 -112.3149023 142.61314123 -101.28125 127.66796875 C-100.19603886 126.42330773 -99.08334565 125.20110848 -97.92578125 124.0234375 C-96.00777417 122.12642979 -96.00777417 122.12642979 -93.84375 119.31640625 C-80.94723781 103.73705182 -56.22115729 97.34578559 -37.52832031 92.83691406 C-10.19585501 87.06584212 -10.19585501 87.06584212 11.40625 71.08203125 C17.47427898 60.83341254 17.35291696 51.56783284 14.8125 40.25 C11.90312751 29.44042246 6.86444027 19.99628197 -2.63671875 13.6015625 C-14.6507041 7.07591268 -26.51739439 7.7381311 -39.390625 11.08203125 C-52.74454876 15.84873933 -62.91736144 27.15012309 -71.1875 38.25 C-71.76113281 39.013125 -72.33476563 39.77625 -72.92578125 40.5625 C-73.34214844 41.119375 -73.75851562 41.67625 -74.1875 42.25 C-75.46403929 40.54592618 -76.7334704 38.83652649 -78 37.125 C-78.70769531 36.17367187 -79.41539062 35.22234375 -80.14453125 34.2421875 C-85.1875 26.85611855 -85.1875 26.85611855 -85.1875 23.25 C-63.59380691 0.4207005 -29.66259955 -4.78936896 0 0 Z " fill="#FBFBFB" transform="translate(611.1875,439.75)"/>
<path d="M0 0 C0 0.66 0 1.32 0 2 C0.58394531 2.268125 1.16789063 2.53625 1.76953125 2.8125 C20.30993246 12.68339662 31.60654691 35.93714733 37.66845703 55.11474609 C40.3785514 64.27499381 42.15093867 73.06921388 42.203125 82.625 C42.20882507 83.44895264 42.21452515 84.27290527 42.22039795 85.12182617 C42.22981315 86.86326835 42.23636804 88.60472807 42.24023438 90.34619141 C42.24986826 92.96419939 42.28089453 95.58139698 42.3125 98.19921875 C42.4119472 113.83183601 39.27506318 127.31581159 34 142 C33.68160156 142.9178125 33.36320313 143.835625 33.03515625 144.78125 C28.48533603 157.12239327 19.78806388 170.2158401 10 179 C9.05125 179.886875 8.1025 180.77375 7.125 181.6875 C-15.51384838 200.68444668 -41.01249958 205.55942724 -70 204 C-76.18107512 203.32384184 -82.07405276 201.84635113 -88 200 C-89.12535156 199.65461182 -89.12535156 199.65461182 -90.2734375 199.30224609 C-98.39139937 196.75513306 -106.05966631 194.02900026 -113 189 C-113.99580078 188.39478516 -113.99580078 188.39478516 -115.01171875 187.77734375 C-129.65457293 178.76028992 -140.87151694 165.67012944 -148.7109375 150.47265625 C-149.96179428 147.98706045 -149.96179428 147.98706045 -151.47094727 145.68701172 C-153.01705132 142.97003563 -153.90137046 140.53576061 -154.75390625 137.53515625 C-155.05031006 136.49488281 -155.34671387 135.45460938 -155.65209961 134.3828125 C-155.95253174 133.28710938 -156.25296387 132.19140625 -156.5625 131.0625 C-157.02765015 129.37060547 -157.02765015 129.37060547 -157.50219727 127.64453125 C-165.99513063 96.06491716 -162.60844169 61.68194088 -146.39404297 32.98999023 C-140.78267488 23.54700023 -133.80603018 15.70365602 -126 8 C-125.18789063 7.17435547 -125.18789063 7.17435547 -124.359375 6.33203125 C-90.10163037 -26.01326647 -38.12934695 -21.42150581 0 0 Z M-107 8 C-107.66 8.33 -108.32 8.66 -109 9 C-109 9.66 -109 10.32 -109 11 C-109.66 11 -110.32 11 -111 11 C-121.81232531 25.00818075 -127.03147126 39.92943257 -131 57 C-131.27154907 58.15145508 -131.27154907 58.15145508 -131.54858398 59.32617188 C-134.55359736 77.12547228 -132.79129801 97.7439842 -128 115 C-127.68651611 116.21719727 -127.68651611 116.21719727 -127.36669922 117.45898438 C-122.76567152 135.28408944 -115.96975359 151.8438892 -104 166 C-103.40445313 166.73347656 -102.80890625 167.46695313 -102.1953125 168.22265625 C-95.58707864 176.12512946 -88.28991374 182.49948533 -79 187 C-78.09894531 187.4434375 -77.19789063 187.886875 -76.26953125 188.34375 C-62.5308537 194.86251563 -46.75453207 196.61712285 -31.9375 192.4375 C-23.41919839 189.29568486 -14.88018128 185.21740702 -9.37890625 177.7734375 C-8 176 -8 176 -5.58984375 173.74609375 C-2.68462499 170.66559784 -0.82952525 167.45945572 1 163.6875 C1.3417627 162.9874585 1.68352539 162.28741699 2.03564453 161.56616211 C10.94973683 142.75570259 12.53098127 123.98181052 12.05322266 103.38769531 C12.00733676 101.32914457 11.99108233 99.26997224 11.98046875 97.2109375 C10.99343145 64.82149125 -3.15558735 29.82468598 -26.71484375 7.41796875 C-38.83112844 -3.06426894 -52.54199881 -8.45775596 -68.55859375 -8.27734375 C-82.95951214 -7.1167703 -96.40745268 -1.90172902 -107 8 Z " fill="#FBFBFB" transform="translate(859,453)"/>
<path d="M0 0 C1.06605469 0.26683594 2.13210938 0.53367187 3.23046875 0.80859375 C23.53530778 6.26688381 43.30914511 21.61440667 54.01708984 39.71972656 C61.51177415 53.06130314 66.15593658 67.18764611 66.125 82.625 C66.12757813 83.91664063 66.13015625 85.20828125 66.1328125 86.5390625 C66.02672568 89.30356012 65.722439 91.37927539 65 94 C45.9868703 94.75913289 26.98029592 95.11911305 7.953125 95.28125 C6.8395311 95.29079712 5.72593719 95.30034424 4.57859802 95.31018066 C-3.53089793 95.37842561 -11.64044059 95.43984675 -19.75 95.5 C-28.97399651 95.56857214 -38.1979595 95.63996674 -47.421875 95.71875 C-48.52921494 95.72813599 -49.63655487 95.73752197 -50.77745056 95.74719238 C-70.19348215 95.91785844 -89.59466787 96.33837251 -109 97 C-109.51355827 121.02944074 -108.06933137 147.06133648 -95 168 C-94.14045767 169.62216296 -93.28605033 171.24706019 -92.4375 172.875 C-90.40780217 176.52586224 -88.08119693 179.14989284 -85 182 C-84.2575 182.969375 -83.515 183.93875 -82.75 184.9375 C-79.5208363 188.8876405 -75.33056982 191.39072923 -71 194 C-69.9171875 194.66386719 -68.834375 195.32773437 -67.71875 196.01171875 C-63.92687585 198.1633394 -60.04412142 199.46198321 -55.875 200.6875 C-55.18535156 200.89955078 -54.49570313 201.11160156 -53.78515625 201.33007812 C-37.53654243 206.25437122 -20.01784115 205.32751985 -4 200 C-2.93265625 199.67257812 -1.8653125 199.34515625 -0.765625 199.0078125 C13.49870602 194.14658526 26.18058577 185.57761274 36.8125 175.01953125 C39 173 39 173 41 173 C42.65 183.56 44.3 194.12 46 205 C38.11288852 209.50692085 38.11288852 209.50692085 33.62890625 210.6328125 C32.16227539 211.0047876 32.16227539 211.0047876 30.66601562 211.38427734 C29.12977539 211.75093506 29.12977539 211.75093506 27.5625 212.125 C26.49064453 212.38361816 25.41878906 212.64223633 24.31445312 212.90869141 C-8.54062153 220.62854734 -46.30915432 219.23341245 -77 204 C-78.55654297 203.24976563 -78.55654297 203.24976563 -80.14453125 202.484375 C-99.70824601 192.55167047 -118.00546239 176.26524393 -127 156 C-127.70576172 154.62328125 -127.70576172 154.62328125 -128.42578125 153.21875 C-138.87388751 132.27068584 -141.27050014 105.73765505 -136 83 C-135.84934082 82.33226562 -135.69868164 81.66453125 -135.54345703 80.9765625 C-129.21682994 53.6523402 -112.97083303 29.10133496 -89 14 C-63.501474 -1.8863157 -29.24185521 -8.76117841 0 0 Z M-61 10 C-62.20076172 10.34804688 -62.20076172 10.34804688 -63.42578125 10.703125 C-78.85847061 15.72428709 -89.07904209 29.89068225 -96.1875 43.6875 C-102.24678436 55.98518239 -109 73.14466798 -109 87 C-73.78383742 87.11584437 -38.57412677 87.05261023 -3.36037445 86.59428024 C-0.8683777 86.56241532 1.62363586 86.5324625 4.11566162 86.50296021 C8.03772564 86.45608226 11.95968115 86.40385704 15.88161469 86.34712219 C17.33095934 86.32678225 18.7803271 86.30802265 20.22971344 86.29090881 C22.20545063 86.26707733 24.18110182 86.23640202 26.15673828 86.20532227 C27.82218185 86.18200584 27.82218185 86.18200584 29.52127075 86.15821838 C31.94250802 86.27770111 31.94250802 86.27770111 33 85 C34.67349244 66.08564357 25.9040763 48.00337715 14.3125 33.54296875 C1.8738437 18.88243247 -14.22917061 8.85845825 -33.56445312 6.71582031 C-43.06038476 6.0562794 -52.02371174 6.66134792 -61 10 Z " fill="#FAFAFA" transform="translate(1241,439)"/>
<path d="M0 0 C8.65666365 6.63063599 15.9169102 18.1741055 18.15625 28.8125 C19.46517928 42.73154682 18.09801759 54.21773079 12.15625 66.8125 C11.83527344 67.59882812 11.51429688 68.38515625 11.18359375 69.1953125 C8.43978591 75.90807029 4.7991535 82.24608283 1.375 88.62890625 C-0.11374029 91.41015853 -1.54871071 94.21046423 -2.9453125 97.0390625 C-4.41007123 99.99067449 -5.98124341 102.82241169 -7.71875 105.625 C-10.38164418 109.99641777 -12.84332565 114.44914806 -15.2734375 118.953125 C-17.501083 123.00943472 -19.84999895 126.99138741 -22.1953125 130.98046875 C-23.59537135 133.38578313 -24.9499585 135.80632064 -26.28125 138.25 C-29.00930021 143.20927008 -32.01243093 147.99466848 -34.9921875 152.8046875 C-37.41253537 156.73647624 -39.70408676 160.71685551 -41.91015625 164.7734375 C-46.679345 173.49334037 -51.95757562 181.90019999 -57.34375 190.25 C-60.49833895 195.17086802 -63.40782719 200.21063452 -66.26757812 205.30639648 C-68.74883001 209.71758001 -68.74883001 209.71758001 -69.84375 210.8125 C-72.43734322 210.90101529 -75.00414691 210.92775945 -77.59765625 210.91015625 C-78.37310287 210.9087413 -79.1485495 210.90732635 -79.94749451 210.90586853 C-82.43378494 210.90025345 -84.9199866 210.88769846 -87.40625 210.875 C-89.08788933 210.86998694 -90.76953006 210.8654237 -92.45117188 210.86132812 C-96.58206566 210.85027913 -100.71289276 210.83300445 -104.84375 210.8125 C-105.49549194 209.22538208 -105.49549194 209.22538208 -106.16040039 207.60620117 C-108.84169776 201.0781681 -111.53056737 194.55360329 -114.25390625 188.04296875 C-114.87446899 186.55917725 -114.87446899 186.55917725 -115.50756836 185.04541016 C-116.3610759 183.00464859 -117.21475604 180.9639592 -118.06860352 178.92333984 C-120.83616291 172.28857042 -123.5189071 165.62493493 -126.15625 158.9375 C-128.44586485 153.13646547 -130.8708373 147.53038015 -133.7734375 142.00390625 C-135.36615861 138.74289698 -136.48942572 135.34483437 -137.68359375 131.921875 C-139.07517867 128.19223999 -140.66274455 124.57310449 -142.28125 120.9375 C-144.94291165 114.95581766 -147.36650556 108.92504997 -149.67578125 102.796875 C-150.74676185 100.06032257 -151.91232455 97.41142189 -153.15625 94.75 C-155.59273898 89.51577604 -157.72154033 84.17939818 -159.84375 78.8125 C-162.30765072 72.58365349 -164.84041412 66.42627705 -167.68554688 60.359375 C-168.74320588 58.03359534 -169.70877602 55.69871222 -170.640625 53.3203125 C-173.10643466 47.10752926 -175.72547171 40.96224355 -178.34375 34.8125 C-181.27870868 27.91894582 -184.18016985 21.01976545 -186.94140625 14.0546875 C-188.74819477 9.56509179 -190.72619115 5.14951521 -192.671875 0.71875 C-193.84375 -2.1875 -193.84375 -2.1875 -193.84375 -4.1875 C-182.62375 -4.5175 -171.40375 -4.8475 -159.84375 -5.1875 C-157.45228428 -0.40456855 -155.16511337 4.22924025 -153.07421875 9.12109375 C-152.58115234 10.27246826 -152.08808594 11.42384277 -151.58007812 12.61010742 C-151.06896484 13.81127197 -150.55785156 15.01243652 -150.03125 16.25 C-149.49553465 17.50435242 -148.95972666 18.75866528 -148.42382812 20.01293945 C-145.22795182 27.50392342 -142.08438392 35.01478214 -139.00463867 42.55419922 C-137.04321234 47.35204667 -134.97331868 52.08775801 -132.84375 56.8125 C-129.01469872 65.40249216 -125.34103435 73.99331736 -122.0234375 82.796875 C-120.52465869 86.62819037 -118.82259882 90.34420706 -117.08984375 94.07421875 C-115.79449084 96.92074662 -114.5931536 99.79418548 -113.40625 102.6875 C-111.65930587 106.93164327 -109.79771774 111.09719389 -107.84375 115.25 C-105.34930188 120.59524598 -103.18984955 126.00622966 -101.109375 131.5234375 C-97.88349476 139.90674355 -94.18007964 148.0867963 -90.46728516 156.26269531 C-87.11415307 163.64814474 -83.92875022 171.01699942 -81.10546875 178.625 C-78.65313324 184.82037391 -75.72570574 190.80773342 -72.84375 196.8125 C-72.36164063 196.0184375 -71.87953125 195.224375 -71.3828125 194.40625 C-70.43535156 192.87484375 -70.43535156 192.87484375 -69.46875 191.3125 C-68.84226562 190.2915625 -68.21578125 189.270625 -67.5703125 188.21875 C-66.71566406 187.02765625 -66.71566406 187.02765625 -65.84375 185.8125 C-65.18375 185.8125 -64.52375 185.8125 -63.84375 185.8125 C-63.71419922 184.76255859 -63.71419922 184.76255859 -63.58203125 183.69140625 C-62.66975136 180.13399737 -61.08573002 177.79655325 -59.03125 174.75 C-55.12911268 168.86805487 -51.44729432 162.88171788 -47.84375 156.8125 C-44.33365932 150.91446046 -40.7777312 145.06355602 -37.03125 139.3125 C-33.09675894 133.25508211 -29.42338122 127.08484487 -25.84375 120.8125 C-25.17743541 119.65474522 -24.51075555 118.4972006 -23.84375 117.33984375 C-20.24356232 111.08113474 -16.70057629 104.79485084 -13.26953125 98.44140625 C-12.32098436 96.69244171 -11.36004919 94.95013797 -10.38671875 93.21484375 C-6.47593882 86.20845966 -3.01277224 79.02935502 0.29052734 71.72216797 C0.86109336 70.46357592 1.43682707 69.20731195 2.01806641 67.95361328 C8.63762881 53.66285377 12.16765414 38.28796814 7.15625 22.8125 C5.30972999 18.19619996 2.70115151 14.93399944 -0.63671875 11.328125 C-1.84375 9.8125 -1.84375 9.8125 -1.84375 7.8125 C-2.66875 7.565 -3.49375 7.3175 -4.34375 7.0625 C-7.72549698 5.85473322 -10.75293389 4.39697042 -13.9140625 2.71484375 C-21.69289315 -0.92262564 -31.47788295 0.04531715 -39.39453125 2.7734375 C-47.21867493 6.09277118 -52.26682236 9.66105056 -56.84375 16.8125 C-57.50375 16.8125 -58.16375 16.8125 -58.84375 16.8125 C-59.13378906 17.54210937 -59.42382812 18.27171875 -59.72265625 19.0234375 C-60.40515209 20.72135399 -61.09782524 22.4152858 -61.80859375 24.1015625 C-64.36415665 30.23901878 -66.19247974 36.372546 -67.84375 42.8125 C-74.44375 42.4825 -81.04375 42.1525 -87.84375 41.8125 C-88.84375 38.8125 -88.84375 38.8125 -87.76171875 36.1328125 C-82.06291961 25.60997345 -75.47854632 16.18139498 -66.84375 7.8125 C-65.97943359 6.93464844 -65.97943359 6.93464844 -65.09765625 6.0390625 C-46.58782785 -11.48756486 -21.11886144 -13.60197855 0 0 Z " fill="#FAFAFA" transform="translate(1077.84375,445.1875)"/>
<path d="M0 0 C5.94 0 11.88 0 18 0 C19.14552717 5.709737 20.28689909 11.41999333 21.41796875 17.13256836 C21.8035948 19.07380083 22.19158631 21.01456501 22.58203125 22.95483398 C23.14432248 25.75122877 23.6979559 28.54922284 24.25 31.34765625 C24.42499023 32.2083522 24.59998047 33.06904816 24.78027344 33.95582581 C25.71342936 38.73516952 26.18386356 43.13048848 26 48 C23.36 48 20.72 48 18 48 C17.63648438 47.01902344 17.27296875 46.03804688 16.8984375 45.02734375 C14.3473166 38.17034909 11.75492542 31.34049111 9 24.5625 C5.72943391 16.4639554 2.86408572 8.25129457 0 0 Z " fill="#F7F7F7" transform="translate(1184,355)"/>
<path d="M0 0 C1.83553796 2.75330694 2.40778129 4.11657204 3.0703125 7.23046875 C3.22773926 7.95387451 3.38516602 8.67728027 3.54736328 9.42260742 C3.7379834 10.33502197 3.92860352 11.24743652 4.125 12.1875 C4.74375 15.095625 5.3625 18.00375 6 21 C12.6 22.65 19.2 24.3 26 26 C23.32105716 27.78596189 21.9968331 28.39169178 18.98828125 29.0703125 C18.30548096 29.22773926 17.62268066 29.38516602 16.91918945 29.54736328 C16.05898193 29.7379834 15.19877441 29.92860352 14.3125 30.125 C11.569375 30.74375 8.82625 31.3625 6 32 C4.35 39.26 2.7 46.52 1 54 C-0.54174141 50.91651718 -1.37553929 48.91414999 -2.0703125 45.671875 C-2.22773926 44.9509668 -2.38516602 44.23005859 -2.54736328 43.48730469 C-2.7379834 42.58399414 -2.92860352 41.68068359 -3.125 40.75 C-3.74375 37.8625 -4.3625 34.975 -5 32 C-11.6 30.35 -18.2 28.7 -25 27 C-22.10396556 25.55198278 -20.1296577 24.66040106 -17.109375 23.9296875 C-16.46967773 23.77226074 -15.82998047 23.61483398 -15.17089844 23.45263672 C-13.97255371 23.16670654 -13.97255371 23.16670654 -12.75 22.875 C-10.1925 22.25625 -7.635 21.6375 -5 21 C-3.35 14.07 -1.7 7.14 0 0 Z " fill="#F2F2F2" transform="translate(803,519)"/>
</svg>
