<?xml version="1.0" encoding="UTF-8"?>
<svg version="1.1" xmlns="http://www.w3.org/2000/svg" width="512" height="512">
<path d="M0 0 C1.91978184 1.66968227 3.83360158 3.34600473 5.74682617 5.02319336 C8.71473196 7.6179414 11.73574481 10.13404004 14.80151367 12.61303711 C19.88960573 16.73196877 24.82155191 21.01451045 29.75463867 25.31616211 C33.38907866 28.47782942 37.05681185 31.58161183 40.80151367 34.61303711 C45.88960573 38.73196877 50.82155191 43.01451045 55.75463867 47.31616211 C59.38907866 50.47782942 63.05681185 53.58161183 66.80151367 56.61303711 C71.88960573 60.73196877 76.82155191 65.01451045 81.75463867 69.31616211 C85.38907866 72.47782942 89.05681185 75.58161183 92.80151367 78.61303711 C97.88960573 82.73196877 102.82155191 87.01451045 107.75463867 91.31616211 C111.38907866 94.47782942 115.05681185 97.58161183 118.80151367 100.61303711 C123.88960573 104.73196877 128.82155191 109.01451045 133.75463867 113.31616211 C137.38907866 116.47782942 141.05681185 119.58161183 144.80151367 122.61303711 C178.24094043 149.80443944 178.24094043 149.80443944 181.09630013 170.89255142 C181.46147987 174.84392997 181.24408527 178.74365691 181.03759766 182.70043945 C180.96621283 184.21940858 180.96621283 184.21940858 180.89338589 185.76906395 C180.70887284 189.55111454 180.50785124 193.33212946 180.30151367 197.11303711 C180.23905826 198.26004388 180.23905826 198.26004388 180.17534113 199.43022251 C179.43066936 213.04836731 178.63957774 226.66380326 177.84283376 240.27898455 C177.64762585 243.61599503 177.45290607 246.95303367 177.25832939 250.29008102 C176.64720002 260.76916289 176.03451771 271.24815212 175.41945177 281.72700369 C174.71328054 293.75806769 174.01230117 305.78941947 173.31577307 317.82104552 C172.77381733 327.17733011 172.2273245 336.53334288 171.67741579 345.88916337 C171.35038129 351.45475483 171.02520084 357.02043905 170.7047596 362.58641434 C170.40377816 367.81214889 170.09712583 373.03752109 169.78625298 378.26267624 C169.67377374 380.16918902 169.56326511 382.07581936 169.45497131 383.98257446 C167.15204956 424.44426014 167.15204956 424.44426014 151.34448242 439.48413086 C141.82758394 447.0721742 131.12016862 450.57700723 119.10693359 450.51708984 C118.13003067 450.52395309 117.15312775 450.53081635 116.1466217 450.53788757 C112.94159086 450.55607456 109.73705343 450.55232888 106.53198242 450.54663086 C104.28672631 450.55119716 102.04147158 450.55650407 99.79621887 450.56251526 C95.09830028 450.57143099 90.40055181 450.56904142 85.70263672 450.55908203 C79.70761071 450.54760606 73.71317495 450.56779125 67.71822643 450.59699917 C63.08283305 450.61542321 58.44757942 450.61505614 53.81215858 450.60936165 C51.60315436 450.60920913 49.39414023 450.61519538 47.18517113 450.62765312 C28.7667575 450.71688717 15.3724378 448.78101075 1.48901367 435.67553711 C-9.7405109 423.76064249 -11.28350001 410.14971576 -11.21490669 394.45173073 C-11.20213931 391.5117486 -11.21368971 388.5726865 -11.23094177 385.63273621 C-11.25749299 380.45279379 -11.26324291 375.27308172 -11.26184082 370.09307861 C-11.259602 361.79393779 -11.27389611 353.4950808 -11.31742668 345.19605064 C-11.32720519 342.31282181 -11.31858196 339.43004813 -11.30873108 336.54682922 C-11.31487881 334.76656808 -11.32179172 332.98630936 -11.32958984 331.20605469 C-11.32187057 330.41569824 -11.31415131 329.6253418 -11.30619812 328.81103516 C-11.36533354 322.22757088 -12.36761142 315.6381516 -16.94848633 310.67553711 C-24.34580307 306.47251623 -32.16564289 306.7721608 -40.40405273 306.79736328 C-42.56130736 306.80051929 -44.71718224 306.7770315 -46.87426758 306.75170898 C-59.41470286 306.56092157 -59.41470286 306.56092157 -70.13598633 312.36303711 C-73.55639514 318.38295662 -73.98869756 324.24120264 -73.95385742 330.97900391 C-73.95747787 331.83857193 -73.96109833 332.69813995 -73.96482849 333.58375549 C-73.97169272 335.44049205 -73.97423354 337.29724866 -73.97288132 339.15399742 C-73.97191054 342.1026238 -73.98492489 345.05089112 -74.00186157 347.99946594 C-74.047957 356.37966119 -74.07271686 364.75981894 -74.0793457 373.14013672 C-74.0843874 378.27715851 -74.10877212 383.41380501 -74.14467239 388.55069923 C-74.15440951 390.49730987 -74.15683595 392.44397253 -74.1515007 394.3906002 C-74.10569588 411.92923209 -76.70196275 424.75342081 -89.13598633 437.92553711 C-102.7167102 450.7250689 -118.15773649 450.71931483 -135.79614258 450.64428711 C-138.03950671 450.6469865 -140.2828697 450.65087262 -142.52622986 450.65588379 C-147.21047183 450.66175655 -151.89440716 450.65328681 -156.57861328 450.63452148 C-162.55910399 450.61172044 -168.53887696 450.62487707 -174.51934147 450.64881134 C-179.14612665 450.66331812 -183.77274378 450.65864116 -188.39953423 450.64830017 C-190.60377527 450.64564706 -192.80803197 450.64885234 -195.01225471 450.65821838 C-216.94277318 450.73098164 -216.94277318 450.73098164 -225.69848633 446.11303711 C-226.69364258 445.6322168 -227.68879883 445.15139648 -228.71411133 444.65600586 C-240.02120887 437.79663025 -248.22073779 428.08703253 -251.69848633 415.11303711 C-253.91686056 403.304083 -254.43625137 391.3340602 -255.11889648 379.36352539 C-255.24677265 377.19709896 -255.37515908 375.0307026 -255.50401306 372.86433411 C-255.85012714 367.02007456 -256.18898381 361.17541515 -256.52635241 355.33064508 C-256.88140795 349.19894798 -257.24279229 343.06762358 -257.60336304 336.93624878 C-258.20738657 326.64937769 -258.80696372 316.3622553 -259.40356445 306.07495117 C-260.09284199 294.19005289 -260.78781004 282.30549857 -261.48611414 270.42112744 C-262.23087952 257.74571041 -262.97206462 245.07008607 -263.71189451 232.39438009 C-263.92484637 228.74931512 -264.13840312 225.10428598 -264.35206985 221.45926285 C-264.68758868 215.73180833 -265.02066214 210.00421652 -265.35185432 204.27651024 C-265.47360524 202.17703712 -265.59614001 200.07760929 -265.71952248 197.97823143 C-265.88799 195.10923528 -266.05356813 192.24008631 -266.21841431 189.37088013 C-266.2676324 188.54383296 -266.31685048 187.7167858 -266.36756003 186.86467659 C-267.31969699 170.06747002 -265.16368411 156.08745413 -253.69848633 143.11303711 C-249.1863974 138.10081302 -244.09982291 133.92098112 -238.85473633 129.69897461 C-235.22792913 126.75625189 -231.71629783 123.68446638 -228.19848633 120.61303711 C-223.06652467 116.13733982 -217.86661896 111.772954 -212.57348633 107.48803711 C-209.06300994 104.58807836 -205.63015906 101.60545573 -202.19848633 98.61303711 C-197.06620976 94.13769195 -191.86663359 89.77296585 -186.57348633 85.48803711 C-183.06300994 82.58807836 -179.63015906 79.60545573 -176.19848633 76.61303711 C-171.06620976 72.13769195 -165.86663359 67.77296585 -160.57348633 63.48803711 C-157.06300994 60.58807836 -153.63015906 57.60545573 -150.19848633 54.61303711 C-145.06620976 50.13769195 -139.86663359 45.77296585 -134.57348633 41.48803711 C-131.06300994 38.58807836 -127.63015906 35.60545573 -124.19848633 32.61303711 C-119.06620976 28.13769195 -113.86663359 23.77296585 -108.57348633 19.48803711 C-105.0630042 16.58807361 -101.63029873 13.60530281 -98.19848633 10.61303711 C-92.95183863 6.04175927 -87.66364323 1.53992026 -82.24536133 -2.82836914 C-80.53206276 -4.21319789 -78.83422049 -5.61734706 -77.15161133 -7.03930664 C-50.40459222 -29.34233344 -23.77242579 -20.5459738 0 0 Z " fill="#FFFFFF" transform="translate(298.698486328125,29.886962890625)"/>
</svg>
